<svg xmlns="http://www.w3.org/2000/svg" xmlns:xlink="http://www.w3.org/1999/xlink" width="429.089" height="500.003" viewBox="0 0 429.089 500.003">
  <defs>
    <linearGradient id="linear-gradient" x1="-81.946" y1="189.096" x2="-81.946" y2="187.863" gradientUnits="objectBoundingBox">
      <stop offset="0.21" stop-color="#fff" stop-opacity="0"/>
      <stop offset="1" stop-color="#fff" stop-opacity="0.2"/>
    </linearGradient>
  </defs>
  <g id="Слой_2" data-name="Слой 2" transform="translate(0 0.002)">
    <g id="Слой_1" data-name="Слой 1">
      <path id="Path_1" data-name="Path 1" d="M167.55,279.29l-34.63-19.88,37.15-21.44,34.63,19.88Z" fill="#d6d8e5" opacity="0.4"/>
      <path id="Path_2" data-name="Path 2" d="M171.43,234.65,134.29,213.2l37.14-21.45,37.15,21.45Z" fill="#efda86"/>
      <path id="Path_3" data-name="Path 3" d="M206.07,257.04l-34.64,20v-40l34.64-19.99Z" fill="#d1b66b"/>
      <path id="Path_4" data-name="Path 4" d="M171.43,277.04l-34.63-20V217.05l34.63,19.99Z" fill="#e2c979"/>
      <path id="Path_5" data-name="Path 5" d="M136.8,217.05v10.46l34.63,19.77V237.09Z" opacity="0.1"/>
      <path id="Path_6" data-name="Path 6" d="M206.07,217.05v11.21l-34.64,19.02V237.09Z" opacity="0.1"/>
      <path id="Path_7" data-name="Path 7" d="M134.29,213.2v11.09l37.14,21.16v-10.8Z" fill="#e2c979"/>
      <path id="Path_8" data-name="Path 8" d="M171.43,245.45l37.15-20.29V213.2l-37.15,21.45Z" fill="#d1b66b"/>
      <path id="Path_9" data-name="Path 9" d="M307,370,196.28,306.24a4.09,4.09,0,0,1,.17-7.17l13.93-7.18a4.11,4.11,0,0,1,3.91.09l114.45,65.9a4.08,4.08,0,0,1-.17,7.17l-10.11,5.21A11.94,11.94,0,0,1,307,370Z" fill="#d6d8e5" opacity="0.4"/>
      <path id="Path_10" data-name="Path 10" d="M313.8,358l-94.36-54.48c-8-4.61-14.47-17-14.47-27.65V12.68C205,2,211.45-2.88,219.44,1.74L313.8,56.21c8,4.62,14.47,17,14.47,27.65v263.2C328.27,357.72,321.79,362.61,313.8,358Z" fill="#b1b4c4"/>
      <path id="Path_11" data-name="Path 11" d="M315.42,362.74l7.47-3.78-7.17-12.29Z" fill="#b1b4c4"/>
      <path id="Path_12" data-name="Path 12" d="M203.51,4.36,210.39.75,209,10.9Z" fill="#b1b4c4"/>
      <path id="Path_13" data-name="Path 13" d="M307.78,361l-94.35-54.48c-8-4.61-14.47-17-14.47-27.65V15.69C199,5,205.44.13,213.43,4.74l94.35,54.48c8,4.62,14.48,17,14.48,27.65v263.2C322.26,360.72,315.78,365.62,307.78,361Z" fill="#616e84"/>
      <path id="Path_14" data-name="Path 14" d="M321.25,87.54V350.73c0,10.67-6.47,15.56-14.47,10.95l-37-21.36-11.51-6.65L212.42,307.2c-8-4.62-14.46-17-14.46-27.65V16.36C198,5.69,204.43.8,212.42,5.41l94.36,54.48C314.78,64.51,321.25,76.88,321.25,87.54Z" fill="#20232d"/>
      <path id="Path_15" data-name="Path 15" d="M314.44,84.87V341.21c0,6.46-4.53,9.08-10.11,5.84l-5-2.9-17.14-9.89L274.82,330l-2.6-1.51-.87-.51L265,324.33l-18.45-10.64h0l-7.6-4.39h0l-3.08-1.78-18.4-10.62-2.51-1.45c-5.6-3.23-10.12-11.08-10.12-17.55V21.54c0-6.46,4.52-9.08,10.12-5.85L251.72,37v.1a17.43,17.43,0,0,0,7.88,13.66c4.36,2.5,7.89.47,7.89-4.55V46.1l36.85,21.27C309.91,70.56,314.44,78.41,314.44,84.87Z" fill="#fff"/>
      <ellipse id="Ellipse_1" data-name="Ellipse 1" cx="2.448" cy="4.245" rx="2.448" ry="4.245" transform="translate(256.394 42.128) rotate(-29.887)" fill="#2b303f"/>
      <path id="Path_16" data-name="Path 16" d="M259.6,45.85a2.77,2.77,0,0,1-1.25-2.17c0-.8.56-1.12,1.25-.72a2.75,2.75,0,0,1,1.26,2.17C260.86,45.93,260.3,46.25,259.6,45.85Z" fill="#fff" opacity="0.1"/>
      <path id="Path_17" data-name="Path 17" d="M325.08,122.17h0c-.77.45-1.39,0-1.39-1V109.9a3.32,3.32,0,0,1,1.39-2.66h0c.77-.45,1.39,0,1.39,1.05v11.22A3.32,3.32,0,0,1,325.08,122.17Z" fill="#757b89"/>
      <path id="Path_18" data-name="Path 18" d="M325.08,140.56h0c-.77.44-1.39,0-1.39-1.05V128.28a3.35,3.35,0,0,1,1.39-2.66h0c.77-.44,1.39,0,1.39,1.06V137.9A3.33,3.33,0,0,1,325.08,140.56Z" fill="#757b89"/>
      <path id="Path_19" data-name="Path 19" d="M293.84,172.51l-71-41c-3-1.74-5.46-6.41-5.46-10.44v-80c0-4,2.44-5.87,5.46-4.13l71,41c3,1.74,5.46,6.41,5.46,10.43v80C299.3,172.4,296.86,174.25,293.84,172.51Z" fill="#e9eaf2"/>
      <path id="Path_20" data-name="Path 20" d="M293.84,279.56l-71-41c-3-1.74-5.46-6.41-5.46-10.43v-80c0-4,2.44-5.87,5.46-4.13l71,41c3,1.74,5.46,6.41,5.46,10.44v80C299.3,279.45,296.86,281.3,293.84,279.56Z" fill="#e9eaf2"/>
      <path id="Path_21" data-name="Path 21" d="M299.31,302.46v41.69L274.82,330l-2.6-1.51-.87-.51L265,324.33l-18.45-10.64h0l-7.65-4.41-3.08-1.78-18.4-10.62v-41.7c0-4,2.45-5.86,5.46-4.12l71,41C296.86,293.77,299.31,298.44,299.31,302.46Z" fill="#e9eaf2"/>
      <path id="Path_22" data-name="Path 22" d="M279.71,106.47,270,89.64A4.5,4.5,0,0,0,268.45,88h0a1.658,1.658,0,0,0-.27-.13,2.2,2.2,0,0,0-.28-.18l-2.7-1.56c-.74-.43-1.43-.4-1.83.09-.86,1-2.8.91-4.94-.33a12.23,12.23,0,0,1-4.94-5.37,4.64,4.64,0,0,0-1.84-2.21L249,76.76a1.742,1.742,0,0,0-.27-.14,1.71,1.71,0,0,0-1.82-.33L237.2,81.9c-.86.5-.86,2.09,0,3.57l5.31,9.2A4.53,4.53,0,0,0,244,96.31a1.56,1.56,0,0,0,1.55.15l1.22-.71v22.5A4.86,4.86,0,0,0,249,122l18.9,11c1.21.7,2.18.13,2.18-1.26v-22.5l1.23,2.12a4.42,4.42,0,0,0,1.54,1.63h0a1.56,1.56,0,0,0,1.55.15l5.31-3.07C280.56,109.54,280.56,108,279.71,106.47Z" fill="#d9dae2"/>
      <path id="Path_23" data-name="Path 23" d="M275.6,209.26l-34.35-19.83a32.3,32.3,0,0,0-1.43,9.09V220l15.74,9.09,2.87-16.52,2.86,19.83L277,241.49V220a50,50,0,0,0-1.4-10.74Z" fill="#d9dae2"/>
      <path id="Path_24" data-name="Path 24" d="M275.6,202.65l-34.35-19.83v4.96l34.35,19.83Z" fill="#d9dae2"/>
      <path id="Path_25" data-name="Path 25" d="M282.17,334.26,274.82,330l-2.6-1.51-.87-.51L265,324.33l-18.45-10.64h0l-7.6-4.39V298.74c0-1.05.73-1.48,1.65-1a3.78,3.78,0,0,1,1.49,2l.31,1a14.86,14.86,0,0,0,6.06,7.94c3.67,2.12,6.67.39,6.67-3.86v-1.28c0-1.3.92-1.85,2-1.19a4,4,0,0,1,1.31,1.31l2.93,4.49-3.3,1.85,1.83,3.14,3.46-2,1.5,2.31-3.15,1.82,1.81,3.15,3.33-1.92,1.5,2.31-3,1.74,1.81,3.15,3.19-1.84a23.51,23.51,0,0,0,7.09,6.79l.58.32A10.51,10.51,0,0,1,282.17,334.26Z" fill="#d9dae2"/>
      <path id="Path_26" data-name="Path 26" d="M305.41,98.86,216.76,48V16.59l88.65,50.85Z" opacity="0.1"/>
      <path id="Path_27" data-name="Path 27" d="M198.5,45.32l-10.92-6.31,29.49-22.06,10.92,6.3Z" fill="#69cc4a"/>
      <path id="Path_28" data-name="Path 28" d="M209.43,51.62l-10.93-6.3,29.49-22.07,10.92,6.31Z" fill="#f4f5f9"/>
      <path id="Path_29" data-name="Path 29" d="M220.35,57.93l-10.92-6.31,29.48-22.06,10.92,6.3Z" fill="#69cc4a"/>
      <path id="Path_30" data-name="Path 30" d="M231.27,64.23l-10.92-6.3,29.48-22.07,10.92,6.31Z" fill="#f4f5f9"/>
      <path id="Path_31" data-name="Path 31" d="M242.19,70.54l-10.92-6.31,29.48-22.06,10.92,6.3Z" fill="#69cc4a"/>
      <path id="Path_32" data-name="Path 32" d="M253.11,76.84l-10.92-6.3,29.48-22.07,10.92,6.31Z" fill="#f4f5f9"/>
      <path id="Path_33" data-name="Path 33" d="M264.03,83.15l-10.92-6.31,29.48-22.06,10.92,6.3Z" fill="#69cc4a"/>
      <path id="Path_34" data-name="Path 34" d="M274.95,89.45l-10.92-6.3,29.48-22.07,10.93,6.31Z" fill="#f4f5f9"/>
      <path id="Path_35" data-name="Path 35" d="M193.12,48.39c3,1.74,5.46.33,5.46-3.15l-10.92-6.31a12.09,12.09,0,0,0,5.46,9.46Z" fill="#69cc4a"/>
      <path id="Path_36" data-name="Path 36" d="M204.05,54.69c3,1.75,5.46.33,5.46-3.15l-10.93-6.3a12.06,12.06,0,0,0,5.47,9.45Z" fill="#f4f5f9"/>
      <path id="Path_37" data-name="Path 37" d="M215,61c3,1.74,5.46.33,5.46-3.15l-10.92-6.31A12.06,12.06,0,0,0,215,61Z" fill="#69cc4a"/>
      <path id="Path_38" data-name="Path 38" d="M225.89,67.31c3,1.74,5.46.32,5.46-3.16l-10.92-6.3a12.08,12.08,0,0,0,5.46,9.46Z" fill="#f4f5f9"/>
      <path id="Path_39" data-name="Path 39" d="M236.81,73.61c3,1.74,5.46.33,5.46-3.15l-10.92-6.31a12.06,12.06,0,0,0,5.46,9.46Z" fill="#69cc4a"/>
      <path id="Path_40" data-name="Path 40" d="M247.73,79.92c3,1.74,5.46.33,5.46-3.16l-10.92-6.3a12.08,12.08,0,0,0,5.46,9.46Z" fill="#f4f5f9"/>
      <path id="Path_41" data-name="Path 41" d="M258.65,86.22c3,1.74,5.46.33,5.46-3.15l-10.92-6.31a12,12,0,0,0,5.46,9.46Z" fill="#69cc4a"/>
      <path id="Path_42" data-name="Path 42" d="M269.57,92.53c3,1.74,5.46.33,5.46-3.16l-10.92-6.3A12.08,12.08,0,0,0,269.57,92.53Z" fill="#f4f5f9"/>
      <g id="Group_1" data-name="Group 1" opacity="0.15">
        <path id="Path_43" data-name="Path 43" d="M193.12,48.39c3,1.74,5.46.33,5.46-3.15l-10.92-6.31a12.09,12.09,0,0,0,5.46,9.46Z"/>
        <path id="Path_44" data-name="Path 44" d="M204.05,54.69c3,1.75,5.46.33,5.46-3.15l-10.93-6.3a12.06,12.06,0,0,0,5.47,9.45Z"/>
        <path id="Path_45" data-name="Path 45" d="M215,61c3,1.74,5.46.33,5.46-3.15l-10.92-6.31A12.06,12.06,0,0,0,215,61Z"/>
        <path id="Path_46" data-name="Path 46" d="M225.89,67.31c3,1.74,5.46.32,5.46-3.16l-10.92-6.3a12.08,12.08,0,0,0,5.46,9.46Z"/>
        <path id="Path_47" data-name="Path 47" d="M236.81,73.61c3,1.74,5.46.33,5.46-3.15l-10.92-6.31a12.06,12.06,0,0,0,5.46,9.46Z"/>
        <path id="Path_48" data-name="Path 48" d="M247.73,79.92c3,1.74,5.46.33,5.46-3.16l-10.92-6.3a12.08,12.08,0,0,0,5.46,9.46Z"/>
        <path id="Path_49" data-name="Path 49" d="M258.65,86.22c3,1.74,5.46.33,5.46-3.15l-10.92-6.31a12,12,0,0,0,5.46,9.46Z"/>
        <path id="Path_50" data-name="Path 50" d="M269.57,92.53c3,1.74,5.46.33,5.46-3.16l-10.92-6.3A12.08,12.08,0,0,0,269.57,92.53Z"/>
      </g>
      <path id="Path_51" data-name="Path 51" d="M380.78,394.51l-39.49-22.8,4.95-2.87,39.5,22.79Z" fill="#d6d8e5" opacity="0.4"/>
      <path id="Path_52" data-name="Path 52" d="M396.04,385.91l-39.65-22.9,4.96-45.22,29.74,17.17Z" fill="#54a23b"/>
      <path id="Path_53" data-name="Path 53" d="M385.74,391.63l-39.66-22.89,4.96-45.22,29.74,17.17Z" fill="#69cc4a"/>
      <path id="Path_54" data-name="Path 54" d="M385.74,391.63l10.3-5.72-4.95-50.95-10.31,5.73Z" fill="#88de6e"/>
      <path id="Path_55" data-name="Path 55" d="M351.04,323.52l10.31-5.73-1.21,10.98Z" fill="#54a23b"/>
      <path id="Path_56" data-name="Path 56" d="M373.34,336.29l-1.83-1.06c0-4.27-2.51-9.19-5.6-11s-5.59.24-5.59,4.51l-1.84-1.06c0-5.43,3.34-7.93,7.43-5.57S373.34,330.86,373.34,336.29Z" fill="#20232d"/>
      <path id="Path_57" data-name="Path 57" d="M383,330.38l-1.83-1.06c0-4.27-2.51-9.19-5.6-11s-5.59.24-5.59,4.51l-1.84-1.06c0-5.43,3.34-7.93,7.43-5.57S383,325,383,330.38Z" fill="#20232d"/>
      <path id="Path_58" data-name="Path 58" d="M345.26,423.43l-56.9-32.83,7.14-4.15,56.9,32.84Z" fill="#d6d8e5" opacity="0.4"/>
      <path id="Path_59" data-name="Path 59" d="M367.24,411.04l-57.12-32.98,7.14-65.14,42.84,24.74Z" fill="#54a23b"/>
      <path id="Path_60" data-name="Path 60" d="M352.4,419.29l-57.13-32.98,7.14-65.14,42.85,24.73Z" fill="#69cc4a"/>
      <path id="Path_61" data-name="Path 61" d="M352.4,419.29l14.84-8.25-7.14-73.38-14.84,8.24Z" fill="#88de6e"/>
      <path id="Path_62" data-name="Path 62" d="M302.41,321.17l14.85-8.25-1.74,15.82Z" fill="#54a23b"/>
      <path id="Path_63" data-name="Path 63" d="M334.54,339.57,331.9,338c0-6.15-3.62-13.24-8.06-15.8s-8.07.34-8.07,6.49l-2.64-1.52c0-7.83,4.8-11.43,10.71-8S334.54,331.74,334.54,339.57Z" fill="#20232d"/>
      <path id="Path_64" data-name="Path 64" d="M348.47,331.06l-2.64-1.53c0-6.15-3.62-13.24-8.06-15.81s-8.07.35-8.07,6.5l-2.64-1.52c0-7.84,4.81-11.43,10.71-8S348.47,323.22,348.47,331.06Z" fill="#20232d"/>
      <path id="Path_65" data-name="Path 65" d="M109.47,280.6,88.09,268.33l24.01-13.86,21.37,12.28Z" fill="#d6d8e5" opacity="0.4"/>
      <path id="Path_66" data-name="Path 66" d="M112.94,252.43,90.01,239.19l22.93-13.24,22.93,13.24Z" fill="#efda86"/>
      <path id="Path_67" data-name="Path 67" d="M134.32,266.25l-21.38,12.34V253.9l21.38-12.34Z" fill="#d1b66b"/>
      <path id="Path_68" data-name="Path 68" d="M112.94,278.59,91.56,266.25V241.56l21.38,12.34Z" fill="#e2c979"/>
      <path id="Path_69" data-name="Path 69" d="M91.56,241.56v6.46l21.38,12.2v-6.29Z" opacity="0.1"/>
      <path id="Path_70" data-name="Path 70" d="M134.32,241.56v6.92l-21.38,11.74v-6.29Z" opacity="0.1"/>
      <path id="Path_71" data-name="Path 71" d="M90.01,239.19v6.84l22.93,13.06v-6.66Z" fill="#e2c979"/>
      <path id="Path_72" data-name="Path 72" d="M112.94,259.09l22.93-12.52v-7.38l-22.93,13.24Z" fill="#d1b66b"/>
      <path id="Path_73" data-name="Path 73" d="M389.25,422.32l-19.3-11.07,21.72-12.54,19.3,11.08Z" fill="#d6d8e5" opacity="0.4"/>
      <path id="Path_74" data-name="Path 74" d="M392.43,396.86l-20.7-11.95,20.7-11.95,20.7,11.95Z" fill="#efda86"/>
      <path id="Path_75" data-name="Path 75" d="M411.73,409.34l-19.3,11.14V398.19l19.3-11.14Z" fill="#d1b66b"/>
      <path id="Path_76" data-name="Path 76" d="M392.43,420.48l-19.3-11.14V387.05l19.3,11.14Z" fill="#e2c979"/>
      <path id="Path_77" data-name="Path 77" d="M373.13,387.05v5.83l19.3,11.02v-5.68Z" opacity="0.1"/>
      <path id="Path_78" data-name="Path 78" d="M411.73,387.05v6.25l-19.3,10.6v-5.68Z" opacity="0.1"/>
      <path id="Path_79" data-name="Path 79" d="M371.73,384.91v6.18l20.7,11.79v-6.02Z" fill="#e2c979"/>
      <path id="Path_80" data-name="Path 80" d="M392.43,402.88l20.7-11.31v-6.66l-20.7,11.95Z" fill="#d1b66b"/>
      <path id="Path_81" data-name="Path 81" d="M161.37,313.52l-41.09-23.71,5.16-2.99,41.09,23.71Z" fill="#d6d8e5" opacity="0.4"/>
      <path id="Path_82" data-name="Path 82" d="M177.25,304.57l-41.26-23.82,5.16-47.04,30.94,17.87Z" fill="#54a23b"/>
      <path id="Path_83" data-name="Path 83" d="M166.53,310.53l-41.26-23.82,5.16-47.04,30.94,17.86Z" fill="#69cc4a"/>
      <path id="Path_84" data-name="Path 84" d="M166.53,310.53l10.72-5.96-5.16-52.99-10.72,5.95Z" fill="#88de6e"/>
      <path id="Path_85" data-name="Path 85" d="M130.43,239.67l10.72-5.96-1.25,11.42Z" fill="#54a23b"/>
      <path id="Path_86" data-name="Path 86" d="M153.63,253l-1.9-1.1c0-4.45-2.62-9.57-5.83-11.42s-5.82.25-5.82,4.69l-1.91-1.1c0-5.65,3.47-8.25,7.73-5.79S153.63,247.3,153.63,253Z" fill="#20232d"/>
      <path id="Path_87" data-name="Path 87" d="M163.69,246.81l-1.9-1.1c0-4.44-2.62-9.57-5.83-11.42s-5.82.25-5.82,4.69l-1.91-1.1c0-5.65,3.47-8.25,7.73-5.79S163.69,241.15,163.69,246.81Z" fill="#20232d"/>
      <g id="Men_2">
        <ellipse id="Ellipse_2" data-name="Ellipse 2" cx="43.6" cy="25.17" rx="43.6" ry="25.17" transform="translate(0 449.66)" fill="#d6d8e5" opacity="0.4"/>
        <path id="_Контур_" data-name="&lt;Контур&gt;" d="M11.63,286.29c-.49,4.24-5.54,22.52-4.46,28.78S25.52,331.8,25.52,331.8l2.4-10.72-9.57-9.36L20.94,294Z" fill="#ffcea9"/>
        <path id="_Контур_2" data-name="&lt;Контур&gt;" d="M25,268.28a7.54,7.54,0,0,0-9.61,2.91c-2.54,4.2-5.18,18.64-5.42,21.1,0,0,3.57,4.93,8.91,4.1Z" fill="#ededed"/>
        <path id="Path_88" data-name="Path 88" d="M44.71,472.07a14.77,14.77,0,0,0,11.17-1.35c2.69.08,17.3-6.17,19.29-.92,1.74,4.6-4.58,8.86-8,9.68-7.38,1.79-12.84,5.47-15.8,6.09-2.21.47-5.07.77-6.83-1C42.46,482.52,42.64,474.82,44.71,472.07Z" fill="#2b2a30"/>
        <path id="Path_89" data-name="Path 89" d="M51.4,484.3c3-.63,8.42-4.31,15.8-6.1,2.84-.68,7.72-3.78,8.21-7.48.66,4.24-5,8-8.21,8.76-7.38,1.79-12.84,5.47-15.8,6.09-2.21.47-5.07.77-6.83-1a4.38,4.38,0,0,1-1-1.77C46.17,485,49.19,484.76,51.4,484.3Z" fill="#297d0f"/>
        <path id="Path_90" data-name="Path 90" d="M21,461.43a14.77,14.77,0,0,0,11.17-1.35c2.69.08,17.3-6.18,19.29-.92,1.74,4.6-4.58,8.86-8,9.68-7.38,1.79-12.84,5.47-15.8,6.09-2.21.47-5.07.77-6.83-1C18.76,471.88,18.94,464.17,21,461.43Z" fill="#2b2a30"/>
        <path id="Path_91" data-name="Path 91" d="M27.7,473.65c3-.62,8.42-4.3,15.8-6.09,2.84-.68,7.72-3.79,8.21-7.48.66,4.24-5.05,8-8.21,8.76-7.38,1.79-12.84,5.47-15.8,6.09-2.21.47-5.07.77-6.83-1a4.27,4.27,0,0,1-1-1.76C22.47,474.34,25.49,474.12,27.7,473.65Z" fill="#297d0f"/>
        <path id="_Контур_3" data-name="&lt;Контур&gt;" d="M20.72,421.73a88.34,88.34,0,0,1,3.37-16s-1-13.81-1.51-26.9C22,364,16.85,350.88,20.92,339l45.85,10.2S64,408.46,63.38,415.63a134.421,134.421,0,0,1-2.05,16.64c-2.1,11.5-5.5,38.86-5.5,38.86-4.85,2.81-11.21,1.25-11.21,1.25s.35-34.59.66-42.88c.38-10.12.69-9.35.69-9.35L44.46,395l-1-12.54s-1.27,9.2-2.09,17.42c-.72,7.17-2.45,13.65-4.39,27-1.67,11.57-4.39,34.83-4.39,34.83-4.85,2.82-11.43.48-11.43.48S19.4,431.77,20.72,421.73Z" fill="#4fa136"/>
        <path id="_Контур_4" data-name="&lt;Контур&gt;" d="M27.41,268.53c3.49.17,6.09,1.07,6.53,0a47.322,47.322,0,0,0,.8-5.46c-.41-1-.75-2.1-.75-2.1-4.39-2.7-5.77-7.44-6.35-13-1-9.43,4.11-17.68,13.55-18.67,8.86-.92,15.39,5.31,17.13,13.86.94,4.23,2.8,12.21.28,19.16-1.41,3.89-3.23,7-5.05,7.57a42.307,42.307,0,0,1-5.24-.46h0s-.47,2.62-.79,4.3-.2,2.57,3.15,4.63-5.06,6.3-10.56,5.89-11.68-3.74-13.37-7.29C24.85,273.08,25,268.42,27.41,268.53Z" fill="#ffcea9"/>
        <path id="_Контур_5" data-name="&lt;Контур&gt;" d="M32.46,269.05c-1,2.41,1.49,5.36,8,7.42s7.15-.59,7.15-.59,9.62,4.38,12.75,6.57c3.93,2.75,5.68,10.71,6.21,24.15.61,15.56.67,38.64.15,42.62,0,0-7.36,7.33-16.77,6.56s-25.25-9.11-29.1-15.54c.11-13.64,1.71-15.86-.5-23.72-5.06-18-7.72-25.35-5.26-37.3,2-9.85,4.86-11.08,8.75-11a78.876,78.876,0,0,1,8.62.83Z" fill="#f4f4f4"/>
        <path id="_Контур_6" data-name="&lt;Контур&gt;" d="M81.42,319.47c-7.73,1.94-9.54-2.93-10.56-7-2.46-9.77-3.78-18.59-5.61-24.13-2.16-6.54-4.42-7.58-7.6-8.85-3.73-1.5-6.94,1.65-5.69,10,1.46,9.85,3.39,16.76,7.07,28.4,1,3,3.12,8.45,6.35,11.06,4,3.22,10,3.08,19.07.83,3.87-1,8.12-3.28,15.45-6.7,2-.92,3.5-1.53,7.27-3.29s7.7-4.69,9.68-7.56,1.64-4.68,1.23-5.33c-.51-.82-.79-.17-1.85,1a21.09,21.09,0,0,1-5.56,5.14s2.44-2.52,3.77-4.16a21.07,21.07,0,0,0,2.92-4.77c.7-1.67-.74-3.94-1.84-2.75s-1.61,2.4-3.61,4.8a20.679,20.679,0,0,1-3.58,3.41,39.43,39.43,0,0,0,3.3-5.3c1.27-2.59-3-1.24-5.39,1.28-1.77,1.83-3.27,2.89-3.31,2.38s-3.49,3.19-5.24,5C95.79,315.05,88.76,317.62,81.42,319.47Z" fill="#ffcea9"/>
        <path id="_Контур_7" data-name="&lt;Контур&gt;" d="M54.79,278.19c5.16-.76,8.81,1.56,11.08,9.38s3.88,14.23,3.88,14.23a14,14,0,0,1-8.65,5.74c-6.17,1.5-8.39-1.45-8.39-1.45S51,297.9,49.93,292.32,48.41,279.14,54.79,278.19Z" fill="#ededed"/>
        <path id="Path_92" data-name="Path 92" d="M58,242s8.15-12.4-9.51-14.92c-12.74-1.82-20.92,6.36-21.87,15.24-.9,8.49,4.32,17.3,8.1,20.79,1.84.66,5.8,1,11-1.33a62.622,62.622,0,0,0,.25-6.95S39.78,241.77,58,242Z" fill="#122610"/>
      </g>
      <path id="Path_93" data-name="Path 93" d="M99.4,309.73s-2-3.65-.74-4.56,3.09,2.51,3.46,3.85-.14-.41-.14-.41-1.37-4.12-.48-4.91,2.09,1,3.28,3.56.3-.23.3-.23-2-4.13-1.13-4.7c1.13-.77,3,1.68,4.11,3.89s-1.49,4.82-1.49,4.82Z" fill="#ffcea9"/>
      <g id="Mobile">
        <path id="Path_94" data-name="Path 94" d="M103.26,316.25l-7.49-4.33c-.63-.36-.55-1,.18-1.42L114,300.05a2.74,2.74,0,0,1,2.47-.1l7.49,4.32c.63.37.55,1-.18,1.43l-18.09,10.44A2.74,2.74,0,0,1,103.26,316.25Z" fill="#b1b4c4"/>
        <path id="Path_95" data-name="Path 95" d="M95.34,311.3v-.69l.81.3Z" fill="#b1b4c4"/>
        <path id="Path_96" data-name="Path 96" d="M124.42,304.87v-.66l-.64.41Z" fill="#b1b4c4"/>
        <path id="Path_97" data-name="Path 97" d="M103.26,315.66l-7.49-4.32c-.63-.37-.55-1,.18-1.43L114,299.47a2.74,2.74,0,0,1,2.47-.1l7.49,4.32c.63.37.55,1-.18,1.43l-18.09,10.44a2.74,2.74,0,0,1-2.43.1Z" fill="#616e84"/>
        <ellipse id="Ellipse_3" data-name="Ellipse 3" cx="0.08" cy="0.14" rx="0.08" ry="0.14" transform="translate(96.846 313.269) rotate(-29.887)" fill="#757b89"/>
        <ellipse id="Ellipse_4" data-name="Ellipse 4" cx="0.08" cy="0.14" rx="0.08" ry="0.14" transform="translate(96.825 312.234) rotate(-30)" fill="#757b89"/>
        <ellipse id="Ellipse_5" data-name="Ellipse 5" cx="0.08" cy="0.14" rx="0.08" ry="0.14" transform="translate(97.181 312.445) rotate(-30)" fill="#757b89"/>
        <ellipse id="Ellipse_6" data-name="Ellipse 6" cx="0.08" cy="0.14" rx="0.08" ry="0.14" transform="translate(97.548 312.657) rotate(-30)" fill="#757b89"/>
        <ellipse id="Ellipse_7" data-name="Ellipse 7" cx="0.08" cy="0.14" rx="0.08" ry="0.14" transform="translate(100.639 314.443) rotate(-30)" fill="#757b89"/>
        <ellipse id="Ellipse_8" data-name="Ellipse 8" cx="0.08" cy="0.14" rx="0.08" ry="0.14" transform="translate(100.991 314.646) rotate(-30)" fill="#757b89"/>
        <ellipse id="Ellipse_9" data-name="Ellipse 9" cx="0.08" cy="0.14" rx="0.08" ry="0.14" transform="translate(101.358 314.858) rotate(-30)" fill="#757b89"/>
        <ellipse id="Ellipse_10" data-name="Ellipse 10" cx="0.08" cy="0.14" rx="0.08" ry="0.14" transform="translate(102.119 316.32) rotate(-29.887)" fill="#757b89"/>
        <path id="Path_98" data-name="Path 98" d="M99.73,314.06l-1-.57a.28.28,0,0,1-.11-.22h0c0-.08.05-.12.11-.08l1,.57a.26.26,0,0,1,.11.21h0C99.84,314.06,99.79,314.1,99.73,314.06Z" fill="#757b89"/>
        <path id="Path_99" data-name="Path 99" d="M122.16,306.51l-.92.53c-.06,0-.11,0-.11-.08h0a.27.27,0,0,1,.11-.2l.92-.53c.06,0,.1,0,.1.08h0a.23.23,0,0,1-.1.2Z" fill="#757b89"/>
        <path id="Path_100" data-name="Path 100" d="M120.75,307.33l-.92.53c-.06,0-.11,0-.11-.08h0a.24.24,0,0,1,.11-.2l.92-.54c.06,0,.1,0,.1.08h0a.27.27,0,0,1-.1.21Z" fill="#757b89"/>
        <path id="Path_101" data-name="Path 101" d="M103.26,315.56l-7.49-4.33c-.63-.36-.55-1,.18-1.42L114,299.36a2.77,2.77,0,0,1,2.47-.1l7.49,4.32c.63.37.55,1-.18,1.43l-18.09,10.44a2.74,2.74,0,0,1-2.43.11Z" fill="#20232d"/>
        <path id="Path_102" data-name="Path 102" d="M123.19,303.76l-2.92-1.69h0a1.38,1.38,0,0,1-1.25,0,.38.38,0,0,1,0-.72h0l-2.92-1.69a1.76,1.76,0,0,0-1.61,0L96.87,309.83a.49.49,0,0,0,0,.93l7.1,4.09a1.76,1.76,0,0,0,1.61,0l17.61-10.17a.48.48,0,0,0,0-.92Z" fill="#2b303f"/>
        <path id="Path_103" data-name="Path 103" d="M123.19,303.76l-2.92-1.69h0a1.38,1.38,0,0,1-1.25,0,.38.38,0,0,1,0-.72h0l-2.92-1.69a1.76,1.76,0,0,0-1.61,0L96.87,309.83a.49.49,0,0,0,0,.93l7.1,4.09a1.76,1.76,0,0,0,1.61,0l17.61-10.17a.48.48,0,0,0,0-.92Z" opacity="0.5" fill="url(#linear-gradient)"/>
        <ellipse id="Ellipse_11" data-name="Ellipse 11" cx="0.34" cy="0.19" rx="0.34" ry="0.19" transform="translate(119.11 301.63)" fill="#2b303f"/>
        <path id="Path_104" data-name="Path 104" d="M119.35,301.88c-.06,0-.06-.08,0-.11a.18.18,0,0,1,.2,0,.06.06,0,0,1,0,.11.23.23,0,0,1-.2,0Z" fill="#fff" opacity="0.1"/>
      </g>
      <path id="Path_105" data-name="Path 105" d="M114.9,314.52s4-3.57,3.77-8.3c-.24-3.3-2.23-.92-2.23-.92l-2,3.63s-2,2.59-3.84,3.18a41.457,41.457,0,0,0-4.19.62c-2.46.48-4.91,3.55-4.91,3.55l3.17,2.43Z" fill="#ffcea9"/>
      <path id="Path_106" data-name="Path 106" d="M424.67,138.6,401.17,125a3,3,0,0,0-2.63-.36h0a2.17,2.17,0,0,0-.53.31l-4.31,2.47,3,4.16v22.33c0,3.28,2,7.09,4.46,8.51l20.73,12,.68,4.69c.14-.07,3.71-2.12,4.84-2.78a1.921,1.921,0,0,0,.31-.18h0a4.15,4.15,0,0,0,1.35-3.48V147.11C429.12,143.83,427.13,140,424.67,138.6Z" fill="#d9dae2"/>
      <path id="Path_107" data-name="Path 107" d="M419.81,178.81l-23.5-13.57c-2.46-1.42-4.45-5.23-4.45-8.51V131.18c0-3.28,2-4.78,4.45-3.36l23.5,13.56c2.46,1.42,4.46,5.24,4.46,8.52v25.54C424.27,178.72,422.27,180.23,419.81,178.81Z" fill="#eff0f9"/>
      <path id="Path_108" data-name="Path 108" d="M398.79,140.75c0-1.44.41-2.37,1.22-2.8s1.87-.27,3.18.49a8.89,8.89,0,0,1,3.21,3.18,8.23,8.23,0,0,1,1.21,4.3v1.16c0,1.45-.4,2.38-1.21,2.8s-1.87.24-3.18-.52a8.81,8.81,0,0,1-3.21-3.18,8.21,8.21,0,0,1-1.22-4.29Zm2.68,2.79a3.729,3.729,0,0,0,.48,1.83,3.3,3.3,0,0,0,1.27,1.32c.52.3.93.34,1.24.12a1.59,1.59,0,0,0,.46-1.33v-1.19a3.88,3.88,0,0,0-.46-1.83,3.26,3.26,0,0,0-1.27-1.33A1.14,1.14,0,0,0,402,141c-.32.21-.48.66-.48,1.36ZM404,161l-2-2.36L412,146l2,2.36Zm4.49-1.4c0-1.45.41-2.38,1.23-2.8s1.88-.24,3.18.51a9,9,0,0,1,3.2,3.16,8.18,8.18,0,0,1,1.22,4.33v1.16c0,1.43-.4,2.37-1.2,2.79s-1.86.25-3.19-.52a8.79,8.79,0,0,1-3.22-3.19,8.21,8.21,0,0,1-1.22-4.25Zm2.68,2.8a3.81,3.81,0,0,0,.5,1.81,3.44,3.44,0,0,0,1.26,1.35c1.13.66,1.7.26,1.7-1.19v-1.23a3.77,3.77,0,0,0-.47-1.82A3.349,3.349,0,0,0,412.9,160a1.15,1.15,0,0,0-1.25-.13,1.48,1.48,0,0,0-.48,1.32Z" fill="#69cc4a"/>
      <path id="Path_109" data-name="Path 109" d="M124.06,67.34l-23.5-13.57a3,3,0,0,0-2.63-.36h0a2.61,2.61,0,0,0-.53.31l-4.31,2.47,3,4.16V82.68c0,3.28,2,7.09,4.45,8.51l20.73,12,.69,4.7,4.83-2.79a3.072,3.072,0,0,0,.31-.17h0a4.11,4.11,0,0,0,1.36-3.48V75.85C128.52,72.57,126.52,68.76,124.06,67.34Z" fill="#d9dae2"/>
      <path id="Path_110" data-name="Path 110" d="M119.21,107.55,95.71,94c-2.46-1.42-4.46-5.23-4.46-8.51V59.93c0-3.28,2-4.79,4.46-3.37l23.5,13.57c2.46,1.42,4.45,5.23,4.45,8.51v25.54C123.66,107.46,121.67,109,119.21,107.55Z" fill="#eff0f9"/>
      <path id="Path_111" data-name="Path 111" d="M107.46,69.99l3.18,9.29,7.13,5.31-5.16,2.83,1.22,8.89-6.37-7.54-6.38.18,1.22-7.49-5.16-8.78,7.13,2.92Z" fill="#f9cb07"/>
    </g>
  </g>
</svg>
